<svg xmlns="http://www.w3.org/2000/svg" xmlns:xlink="http://www.w3.org/1999/xlink" version="1.1" viewBox="0 0 82.61 52.49"><g transform="translate(-196.69345,-153.75419)"><g data-paper-data="{&quot;isPaintingLayer&quot;:true}" fill-rule="nonzero" stroke-linejoin="miter" stroke-miterlimit="10" stroke-dasharray="" stroke-dashoffset="0" style="mix-blend-mode: normal"><path d="M212.78274,170.30048c0,0 7.3493,-7.3493 9.61308,-9.61308c1.60594,-1.60594 4.50803,-3.07725 4.50803,-3.07725c0,0 2.19485,-1.04057 6.2197,-1.04057c12.17908,0 31.22451,0 38.03863,0c3.29942,0 5.30647,1.52135 5.30647,1.52135c0,0 1.31378,2.62866 -1.2507,5.19314c-4.22719,4.22719 -15.33925,15.62639 -21.95624,22.24338c-2.36494,2.36493 -3.73576,3.51397 -3.73576,3.51397c0,0 -1.27353,0.95924 -3.64391,0.95924c-4.01318,0 -16.9179,0 -25.50538,0c-4.66465,0 -5.97434,-2.34126 -5.97434,-2.34126c0,0 -2.08112,-2.88853 -2.08112,-6.61908c0,-4.42771 0,-15.02823 0,-20.81125c0,-2.32082 -1.69091,-3.06438 -1.69091,-3.06438c0,0 -1.50309,-0.9105 -3.39072,-0.9105c-2.37525,0 -8.04612,0 -8.04612,0" fill="none" stroke="#000000" stroke-width="5" stroke-linecap="round"/><path d="M239.5746,156.81015l-26.80794,26.80794" fill="none" stroke="#000000" stroke-width="5" stroke-linecap="round"/><path d="M221.96814,187.97829l30.69774,-30.69774" fill="none" stroke="#000000" stroke-width="5" stroke-linecap="round"/><path d="M235.77969,188.31515l31.53834,-31.53834" fill="none" stroke="#000000" stroke-width="5" stroke-linecap="round"/><path d="M213.91336,199.48941c0,-2.35074 1.90565,-4.2564 4.2564,-4.2564c2.35074,0 4.2564,1.90565 4.2564,4.2564c0,2.35074 -1.90565,4.2564 -4.2564,4.2564c-2.35074,0 -4.2564,-1.90565 -4.2564,-4.2564z" fill="none" stroke="#000000" stroke-width="5" stroke-linecap="butt"/><path d="M244.9194,199.48941c0,-2.35074 1.90566,-4.2564 4.2564,-4.2564c2.35074,0 4.25639,1.90566 4.25639,4.2564c0,2.35074 -1.90565,4.25639 -4.25639,4.25639c-2.35074,0 -4.2564,-1.90565 -4.2564,-4.25639z" fill="none" stroke="#000000" stroke-width="5" stroke-linecap="butt"/><path d="M274.27882,159.11584c0,-1.38071 1.11929,-2.5 2.5,-2.5c1.38071,0 2.5,1.11929 2.5,2.5c0,1.38071 -1.11929,2.5 -2.5,2.5c-1.38071,0 -2.5,-1.11929 -2.5,-2.5z" fill="#000000" stroke="none" stroke-width="0.5" stroke-linecap="butt"/></g></g></svg>